{
    "asset" : {
        "generator" : "Khronos glTF Blender I/O v1.6.16",
        "version" : "2.0"
    },
    "scene" : 0,
    "scenes" : [
        {
            "extras" : {
                "DM" : {
                    "revision" : "763ba532f74ace35e0bae1e827cd0cdc629f5bb4",
                    "export_atlas_texture_channel_packCOL" : [
                        {
                            "avoid_update" : 0,
                            "name" : "ao_curv_height",
                            "red" : 2,
                            "green" : 3,
                            "blue" : 4
                        },
                        {
                            "avoid_update" : 0,
                            "name" : "masks",
                            "red" : 1,
                            "green" : 9,
                            "blue" : 10
                        }
                    ]
                },
                "bc" : {
                    "snap" : {
                        "hit" : 0
                    }
                },
                "b_settings" : 1,
                "b_renderer" : 1,
                "b_aa" : 1,
                "b_colorManagement" : 1,
                "b_physicallyCorrectLights" : 1,
                "b_player" : 1,
                "b_raycast" : 1,
                "b_interactive" : 1,
                "s_output" : "exporting...",
                "b_show_env_sky" : 1,
                "b_cubemap_background" : 1,
                "b_cast_shadows" : 1,
                "b_cubemap" : 1,
                "b_bake_lightmap" : 1,
                "b_use_lightmapper" : 1,
                "b_export" : 1,
                "b_export_single_model" : 0,
                "export_path" : "C:\\2Projects\\FounderKeyDemo001",
                "TLM_Buildstat" : [
                    "0.0 hours 0.0 mins 10.1 seconds"
                ]
            },
            "name" : "Scene",
            "nodes" : [
                0
            ]
        }
    ],
    "nodes" : [
        {
            "extras" : {
                "TLM_ObjectProperties" : {
                    "tlm_mesh_lightmap_use" : 1,
                    "tlm_mesh_lightmap_resolution" : 3
                },
                "TLM_PrevMatArray" : [
                    "Material.004"
                ]
            },
            "mesh" : 0,
            "name" : "Plane.001",
            "rotation" : [
                0,
                0.08474302291870117,
                0,
                0.9964028596878052
            ],
            "scale" : [
                3,
                12,
                6
            ]
        }
    ],
    "materials" : [
        {
            "doubleSided" : true,
            "emissiveFactor" : [
                1,
                1,
                1
            ],
            "emissiveTexture" : {
                "index" : 0,
                "texCoord" : 1
            },
            "extras" : {},
            "name" : "Material.004",
            "pbrMetallicRoughness" : {
                "metallicFactor" : 0,
                "roughnessFactor" : 0
            }
        }
    ],
    "meshes" : [
        {
            "extras" : {},
            "name" : "Plane",
            "primitives" : [
                {
                    "attributes" : {
                        "POSITION" : 0,
                        "NORMAL" : 1,
                        "TANGENT" : 2,
                        "TEXCOORD_0" : 3,
                        "TEXCOORD_1" : 4,
                        "COLOR_0" : 5
                    },
                    "indices" : 6,
                    "material" : 0
                }
            ]
        }
    ],
    "textures" : [
        {
            "sampler" : 0,
            "source" : 0
        }
    ],
    "images" : [
        {
            "bufferView" : 7,
            "mimeType" : "image/png",
            "name" : "Plane"
        }
    ],
    "accessors" : [
        {
            "bufferView" : 0,
            "componentType" : 5126,
            "count" : 38809,
            "max" : [
                350.5643310546875,
                1.7784042358398438,
                350.5074462890625
            ],
            "min" : [
                -350.5643310546875,
                -2.8026702404022217,
                -350.5074462890625
            ],
            "type" : "VEC3"
        },
        {
            "bufferView" : 1,
            "componentType" : 5126,
            "count" : 38809,
            "type" : "VEC3"
        },
        {
            "bufferView" : 2,
            "componentType" : 5126,
            "count" : 38809,
            "type" : "VEC4"
        },
        {
            "bufferView" : 3,
            "componentType" : 5126,
            "count" : 38809,
            "type" : "VEC2"
        },
        {
            "bufferView" : 4,
            "componentType" : 5126,
            "count" : 38809,
            "type" : "VEC2"
        },
        {
            "bufferView" : 5,
            "componentType" : 5123,
            "count" : 38809,
            "normalized" : true,
            "type" : "VEC4"
        },
        {
            "bufferView" : 6,
            "componentType" : 5123,
            "count" : 230496,
            "type" : "SCALAR"
        }
    ],
    "bufferViews" : [
        {
            "buffer" : 0,
            "byteLength" : 465708,
            "byteOffset" : 0
        },
        {
            "buffer" : 0,
            "byteLength" : 465708,
            "byteOffset" : 465708
        },
        {
            "buffer" : 0,
            "byteLength" : 620944,
            "byteOffset" : 931416
        },
        {
            "buffer" : 0,
            "byteLength" : 310472,
            "byteOffset" : 1552360
        },
        {
            "buffer" : 0,
            "byteLength" : 310472,
            "byteOffset" : 1862832
        },
        {
            "buffer" : 0,
            "byteLength" : 310472,
            "byteOffset" : 2173304
        },
        {
            "buffer" : 0,
            "byteLength" : 460992,
            "byteOffset" : 2483776
        },
        {
            "buffer" : 0,
            "byteLength" : 21687,
            "byteOffset" : 2944768
        }
    ],
    "samplers" : [
        {
            "magFilter" : 9729,
            "minFilter" : 9987,
            "wrapS" : 33071,
            "wrapT" : 33071
        }
    ],
    "buffers" : [
        {
            "byteLength" : 2966456,
            "uri" : "data:application/octet-stream;base64,"
        }
    ]
}
